<?xml version="1.0" encoding="utf-8" standalone="no"?>
<!DOCTYPE svg PUBLIC "-//W3C//DTD SVG 1.1//EN"
  "http://www.w3.org/Graphics/SVG/1.1/DTD/svg11.dtd">
<svg xmlns:xlink="http://www.w3.org/1999/xlink" width="680.819967pt" height="406.018359pt" viewBox="0 0 680.819967 406.018359" xmlns="http://www.w3.org/2000/svg" version="1.1">
 <metadata>
  <rdf:RDF xmlns:dc="http://purl.org/dc/elements/1.1/" xmlns:cc="http://creativecommons.org/ns#" xmlns:rdf="http://www.w3.org/1999/02/22-rdf-syntax-ns#">
   <cc:Work>
    <dc:type rdf:resource="http://purl.org/dc/dcmitype/StillImage"/>
    <dc:date>2026-07-21T01:26:19.435238</dc:date>
    <dc:format>image/svg+xml</dc:format>
    <dc:creator>
     <cc:Agent>
      <dc:title>Matplotlib v3.10.9, https://matplotlib.org/</dc:title>
     </cc:Agent>
    </dc:creator>
   </cc:Work>
  </rdf:RDF>
 </metadata>
 <defs>
  <style type="text/css">*{stroke-linejoin: round; stroke-linecap: butt}</style>
 </defs>
 <g id="figure_1">
  <g id="patch_1">
   <path d="M 0 406.018359 
L 680.819967 406.018359 
L 680.819967 0 
L 0 0 
z
" style="fill: #f7f8fe"/>
  </g>
  <g id="axes_1">
   <g id="patch_2">
    <path d="M 22.31 367.998047 
L 663.463537 367.998047 
L 663.463537 29.198047 
L 22.31 29.198047 
z
" style="fill: #ffffff"/>
   </g>
   <g id="line2d_1">
    <path d="M 22.31 51.093285 
L 663.463537 51.093285 
" clip-path="url(#p4abadbd2be)" style="fill: none; stroke: #d5d8ee; stroke-linecap: square"/>
   </g>
   <g id="matplotlib.axis_1">
    <g id="xtick_1">
     <g id="line2d_2">
      <defs>
       <path id="m9b18ed8021" d="M 0 0 
L 0 3.5 
" style="stroke: #23264d; stroke-width: 0.8"/>
      </defs>
      <g>
       <use xlink:href="#m9b18ed8021" x="62.382096" y="367.998047" style="fill: #23264d; stroke: #23264d; stroke-width: 0.8"/>
      </g>
     </g>
     <g id="text_1">
      <text style="font-size: 9px; font-family: 'DejaVu Sans', 'Segoe UI', 'Arial', sans-serif; text-anchor: middle; fill: #23264d" x="62.382096" y="381.836641" transform="rotate(-0 62.382096 381.836641)">−6</text>
     </g>
    </g>
    <g id="xtick_2">
     <g id="line2d_3">
      <g>
       <use xlink:href="#m9b18ed8021" x="142.526288" y="367.998047" style="fill: #23264d; stroke: #23264d; stroke-width: 0.8"/>
      </g>
     </g>
     <g id="text_2">
      <text style="font-size: 9px; font-family: 'DejaVu Sans', 'Segoe UI', 'Arial', sans-serif; text-anchor: middle; fill: #23264d" x="142.526288" y="381.836641" transform="rotate(-0 142.526288 381.836641)">−3</text>
     </g>
    </g>
    <g id="xtick_3">
     <g id="line2d_4">
      <g>
       <use xlink:href="#m9b18ed8021" x="222.67048" y="367.998047" style="fill: #23264d; stroke: #23264d; stroke-width: 0.8"/>
      </g>
     </g>
     <g id="text_3">
      <text style="font-size: 9px; font-family: 'DejaVu Sans', 'Segoe UI', 'Arial', sans-serif; text-anchor: middle; fill: #23264d" x="222.67048" y="381.836641" transform="rotate(-0 222.67048 381.836641)">0</text>
     </g>
    </g>
    <g id="xtick_4">
     <g id="line2d_5">
      <g>
       <use xlink:href="#m9b18ed8021" x="302.814672" y="367.998047" style="fill: #23264d; stroke: #23264d; stroke-width: 0.8"/>
      </g>
     </g>
     <g id="text_4">
      <text style="font-size: 9px; font-family: 'DejaVu Sans', 'Segoe UI', 'Arial', sans-serif; text-anchor: middle; fill: #23264d" x="302.814672" y="381.836641" transform="rotate(-0 302.814672 381.836641)">3</text>
     </g>
    </g>
    <g id="xtick_5">
     <g id="line2d_6">
      <g>
       <use xlink:href="#m9b18ed8021" x="382.958864" y="367.998047" style="fill: #23264d; stroke: #23264d; stroke-width: 0.8"/>
      </g>
     </g>
     <g id="text_5">
      <text style="font-size: 9px; font-family: 'DejaVu Sans', 'Segoe UI', 'Arial', sans-serif; text-anchor: middle; fill: #23264d" x="382.958864" y="381.836641" transform="rotate(-0 382.958864 381.836641)">6</text>
     </g>
    </g>
    <g id="xtick_6">
     <g id="line2d_7">
      <g>
       <use xlink:href="#m9b18ed8021" x="463.103056" y="367.998047" style="fill: #23264d; stroke: #23264d; stroke-width: 0.8"/>
      </g>
     </g>
     <g id="text_6">
      <text style="font-size: 9px; font-family: 'DejaVu Sans', 'Segoe UI', 'Arial', sans-serif; text-anchor: middle; fill: #23264d" x="463.103056" y="381.836641" transform="rotate(-0 463.103056 381.836641)">9</text>
     </g>
    </g>
    <g id="xtick_7">
     <g id="line2d_8">
      <g>
       <use xlink:href="#m9b18ed8021" x="543.247248" y="367.998047" style="fill: #23264d; stroke: #23264d; stroke-width: 0.8"/>
      </g>
     </g>
     <g id="text_7">
      <text style="font-size: 9px; font-family: 'DejaVu Sans', 'Segoe UI', 'Arial', sans-serif; text-anchor: middle; fill: #23264d" x="543.247248" y="381.836641" transform="rotate(-0 543.247248 381.836641)">12</text>
     </g>
    </g>
    <g id="xtick_8">
     <g id="line2d_9">
      <g>
       <use xlink:href="#m9b18ed8021" x="623.391441" y="367.998047" style="fill: #23264d; stroke: #23264d; stroke-width: 0.8"/>
      </g>
     </g>
     <g id="text_8">
      <text style="font-size: 9px; font-family: 'DejaVu Sans', 'Segoe UI', 'Arial', sans-serif; text-anchor: middle; fill: #23264d" x="623.391441" y="381.836641" transform="rotate(-0 623.391441 381.836641)">15</text>
     </g>
    </g>
    <g id="text_9">
     <!-- Energía   $\log_{10}(E\,/\,\mathrm{eV})$ -->
     <g style="fill: #23264d" transform="translate(283.706768 396.508359)">
      <text>
       <tspan x="0" y="-0.203125" style="font-size: 11px; font-family: 'DejaVu Sans'; fill: #23264d">E</tspan>
       <tspan x="6.950195" y="-0.203125" style="font-size: 11px; font-family: 'DejaVu Sans'; fill: #23264d">n</tspan>
       <tspan x="13.921875" y="-0.203125" style="font-size: 11px; font-family: 'DejaVu Sans'; fill: #23264d">e</tspan>
       <tspan x="20.689453" y="-0.203125" style="font-size: 11px; font-family: 'DejaVu Sans'; fill: #23264d">r</tspan>
       <tspan x="25.211914" y="-0.203125" style="font-size: 11px; font-family: 'DejaVu Sans'; fill: #23264d">g</tspan>
       <tspan x="32.194336" y="-0.203125" style="font-size: 11px; font-family: 'DejaVu Sans'; fill: #23264d">í</tspan>
       <tspan x="35.250488" y="-0.203125" style="font-size: 11px; font-family: 'DejaVu Sans'; fill: #23264d">a</tspan>
       <tspan x="41.991211" y="-0.203125" style="font-size: 11px; font-family: 'DejaVu Sans'; fill: #23264d"> </tspan>
       <tspan x="45.487793" y="-0.203125" style="font-size: 11px; font-family: 'DejaVu Sans'; fill: #23264d"> </tspan>
       <tspan x="48.984375" y="-0.203125" style="font-size: 11px; font-family: 'DejaVu Sans'; fill: #23264d"> </tspan>
       <tspan x="52.480957" y="-0.203125" style="font-size: 11px; font-family: 'DejaVu Sans'; fill: #23264d">l</tspan>
       <tspan x="55.537109" y="-0.203125" style="font-size: 11px; font-family: 'DejaVu Sans'; fill: #23264d">o</tspan>
       <tspan x="62.26709" y="-0.203125" style="font-size: 11px; font-family: 'DejaVu Sans'; fill: #23264d">g</tspan>
       <tspan x="81.23944" y="-0.203125" style="font-size: 11px; font-family: 'DejaVu Sans'; fill: #23264d">(</tspan>
       <tspan x="94.267064" y="-0.203125" style="font-size: 11px; font-family: 'DejaVu Sans'; fill: #23264d">/</tspan>
       <tspan x="99.759043" y="-0.203125" style="font-size: 11px; font-family: 'DejaVu Sans'; fill: #23264d">e</tspan>
       <tspan x="106.526621" y="-0.203125" style="font-size: 11px; font-family: 'DejaVu Sans'; fill: #23264d">V</tspan>
       <tspan x="114.051523" y="-0.203125" style="font-size: 11px; font-family: 'DejaVu Sans'; fill: #23264d">)</tspan>
       <tspan x="69.354785" y="1.601562" style="font-size: 7.7px; font-family: 'DejaVu Sans'; fill: #23264d">1</tspan>
       <tspan x="74.25376" y="1.601562" style="font-size: 7.7px; font-family: 'DejaVu Sans'; fill: #23264d">0</tspan>
       <tspan x="85.530944" y="-0.203125" style="font-style: oblique; font-size: 11px; font-family: 'DejaVu Sans'; fill: #23264d">E</tspan>
      </text>
     </g>
    </g>
   </g>
   <g id="matplotlib.axis_2">
    <g id="text_10">
     <!-- $\nu F_\nu$   (potencia por década)   [u.a.] -->
     <g style="fill: #23264d" transform="translate(16 293.143047) rotate(-90)">
      <text>
       <tspan x="0" y="-0.203125" style="font-style: oblique; font-size: 11px; font-family: 'DejaVu Sans'; fill: #23264d">ν</tspan>
       <tspan x="6.144531" y="-0.203125" style="font-style: oblique; font-size: 11px; font-family: 'DejaVu Sans'; fill: #23264d">F</tspan>
       <tspan x="12.47168" y="1.601562" style="font-style: oblique; font-size: 7.7px; font-family: 'DejaVu Sans'; fill: #23264d">ν</tspan>
       <tspan x="17.073633" y="-0.203125" style="font-size: 11px; font-family: 'DejaVu Sans'; fill: #23264d"> </tspan>
       <tspan x="20.570215" y="-0.203125" style="font-size: 11px; font-family: 'DejaVu Sans'; fill: #23264d"> </tspan>
       <tspan x="24.066797" y="-0.203125" style="font-size: 11px; font-family: 'DejaVu Sans'; fill: #23264d"> </tspan>
       <tspan x="27.563379" y="-0.203125" style="font-size: 11px; font-family: 'DejaVu Sans'; fill: #23264d">(</tspan>
       <tspan x="31.854883" y="-0.203125" style="font-size: 11px; font-family: 'DejaVu Sans'; fill: #23264d">p</tspan>
       <tspan x="38.837305" y="-0.203125" style="font-size: 11px; font-family: 'DejaVu Sans'; fill: #23264d">o</tspan>
       <tspan x="45.567285" y="-0.203125" style="font-size: 11px; font-family: 'DejaVu Sans'; fill: #23264d">t</tspan>
       <tspan x="49.880273" y="-0.203125" style="font-size: 11px; font-family: 'DejaVu Sans'; fill: #23264d">e</tspan>
       <tspan x="56.647852" y="-0.203125" style="font-size: 11px; font-family: 'DejaVu Sans'; fill: #23264d">n</tspan>
       <tspan x="63.619531" y="-0.203125" style="font-size: 11px; font-family: 'DejaVu Sans'; fill: #23264d">c</tspan>
       <tspan x="69.667383" y="-0.203125" style="font-size: 11px; font-family: 'DejaVu Sans'; fill: #23264d">i</tspan>
       <tspan x="72.723535" y="-0.203125" style="font-size: 11px; font-family: 'DejaVu Sans'; fill: #23264d">a</tspan>
       <tspan x="79.464258" y="-0.203125" style="font-size: 11px; font-family: 'DejaVu Sans'; fill: #23264d"> </tspan>
       <tspan x="82.96084" y="-0.203125" style="font-size: 11px; font-family: 'DejaVu Sans'; fill: #23264d">p</tspan>
       <tspan x="89.943262" y="-0.203125" style="font-size: 11px; font-family: 'DejaVu Sans'; fill: #23264d">o</tspan>
       <tspan x="96.673242" y="-0.203125" style="font-size: 11px; font-family: 'DejaVu Sans'; fill: #23264d">r</tspan>
       <tspan x="101.195703" y="-0.203125" style="font-size: 11px; font-family: 'DejaVu Sans'; fill: #23264d"> </tspan>
       <tspan x="104.692285" y="-0.203125" style="font-size: 11px; font-family: 'DejaVu Sans'; fill: #23264d">d</tspan>
       <tspan x="111.674707" y="-0.203125" style="font-size: 11px; font-family: 'DejaVu Sans'; fill: #23264d">é</tspan>
       <tspan x="118.442285" y="-0.203125" style="font-size: 11px; font-family: 'DejaVu Sans'; fill: #23264d">c</tspan>
       <tspan x="124.490137" y="-0.203125" style="font-size: 11px; font-family: 'DejaVu Sans'; fill: #23264d">a</tspan>
       <tspan x="131.230859" y="-0.203125" style="font-size: 11px; font-family: 'DejaVu Sans'; fill: #23264d">d</tspan>
       <tspan x="138.213281" y="-0.203125" style="font-size: 11px; font-family: 'DejaVu Sans'; fill: #23264d">a</tspan>
       <tspan x="144.954004" y="-0.203125" style="font-size: 11px; font-family: 'DejaVu Sans'; fill: #23264d">)</tspan>
       <tspan x="149.245508" y="-0.203125" style="font-size: 11px; font-family: 'DejaVu Sans'; fill: #23264d"> </tspan>
       <tspan x="152.74209" y="-0.203125" style="font-size: 11px; font-family: 'DejaVu Sans'; fill: #23264d"> </tspan>
       <tspan x="156.238672" y="-0.203125" style="font-size: 11px; font-family: 'DejaVu Sans'; fill: #23264d"> </tspan>
       <tspan x="159.735254" y="-0.203125" style="font-size: 11px; font-family: 'DejaVu Sans'; fill: #23264d">[</tspan>
       <tspan x="164.026758" y="-0.203125" style="font-size: 11px; font-family: 'DejaVu Sans'; fill: #23264d">u</tspan>
       <tspan x="170.998437" y="-0.203125" style="font-size: 11px; font-family: 'DejaVu Sans'; fill: #23264d">.</tspan>
       <tspan x="174.49502" y="-0.203125" style="font-size: 11px; font-family: 'DejaVu Sans'; fill: #23264d">a</tspan>
       <tspan x="181.235742" y="-0.203125" style="font-size: 11px; font-family: 'DejaVu Sans'; fill: #23264d">.</tspan>
       <tspan x="184.732324" y="-0.203125" style="font-size: 11px; font-family: 'DejaVu Sans'; fill: #23264d">]</tspan>
      </text>
     </g>
    </g>
   </g>
   <g id="FillBetweenPolyCollection_1">
    <defs>
     <path id="m12a88574a9" d="M 524.714405 -246.07082 
L 524.714405 -246.065803 
L 524.928194 -245.738574 
L 525.141983 -245.394532 
L 525.355772 -245.03378 
L 525.569562 -244.656431 
L 525.783351 -244.262598 
L 525.99714 -243.852404 
L 526.210929 -243.425972 
L 526.424718 -242.983433 
L 526.638507 -242.524922 
L 526.852296 -242.050577 
L 527.066085 -241.560542 
L 527.279874 -241.054965 
L 527.493664 -240.534 
L 527.707453 -239.997802 
L 527.921242 -239.446533 
L 528.135031 -238.880358 
L 528.34882 -238.299447 
L 528.562609 -237.703972 
L 528.776398 -237.09411 
L 528.990187 -236.470043 
L 529.203976 -235.831956 
L 529.417765 -235.180036 
L 529.631555 -234.514475 
L 529.845344 -233.835469 
L 530.059133 -233.143217 
L 530.272922 -232.437919 
L 530.486711 -231.719781 
L 530.7005 -230.989012 
L 530.914289 -230.245822 
L 531.128078 -229.490424 
L 531.341867 -228.723036 
L 531.555657 -227.943877 
L 531.769446 -227.153168 
L 531.983235 -226.351134 
L 532.197024 -225.538001 
L 532.410813 -224.713998 
L 532.624602 -223.879356 
L 532.838391 -223.034308 
L 533.05218 -222.179088 
L 533.265969 -221.313933 
L 533.479759 -220.439081 
L 533.693548 -219.554772 
L 533.907337 -218.661247 
L 534.121126 -217.75875 
L 534.334915 -216.847523 
L 534.548704 -215.927812 
L 534.762493 -214.999863 
L 534.976282 -214.063922 
L 535.190071 -213.120239 
L 535.403861 -212.16906 
L 535.61765 -211.210636 
L 535.831439 -210.245216 
L 536.045228 -209.273049 
L 536.259017 -208.294386 
L 536.472806 -207.309478 
L 536.686595 -206.318575 
L 536.900384 -205.321927 
L 537.114173 -204.319785 
L 537.327963 -203.312399 
L 537.541752 -202.300018 
L 537.755541 -201.282891 
L 537.96933 -200.261269 
L 538.183119 -199.235398 
L 538.396908 -198.205525 
L 538.610697 -197.171899 
L 538.824486 -196.134763 
L 539.038275 -195.094363 
L 539.252064 -194.050942 
L 539.465854 -193.004742 
L 539.679643 -191.956005 
L 539.893432 -190.904969 
L 540.107221 -189.851874 
L 540.32101 -188.796955 
L 540.534799 -187.740447 
L 540.748588 -186.682584 
L 540.962377 -185.623597 
L 541.176166 -184.563715 
L 541.389956 -183.503166 
L 541.603745 -182.442176 
L 541.817534 -181.380968 
L 542.031323 -180.319763 
L 542.245112 -179.258781 
L 542.458901 -178.198237 
L 542.67269 -177.138346 
L 542.886479 -176.079321 
L 543.100268 -175.02137 
L 543.314058 -173.9647 
L 543.527847 -172.909516 
L 543.741636 -171.856018 
L 543.955425 -170.804407 
L 544.169214 -169.754877 
L 544.383003 -168.707623 
L 544.596792 -167.662833 
L 544.810581 -166.620696 
L 545.02437 -165.581396 
L 545.23816 -164.545115 
L 545.451949 -163.51203 
L 545.665738 -162.482318 
L 545.879527 -161.456149 
L 546.093316 -160.433694 
L 546.307105 -159.415117 
L 546.520894 -158.400582 
L 546.734683 -157.390247 
L 546.948472 -156.384269 
L 547.162262 -155.382801 
L 547.376051 -154.385991 
L 547.58984 -153.393987 
L 547.803629 -152.40693 
L 548.017418 -151.42496 
L 548.231207 -150.448213 
L 548.444996 -149.476822 
L 548.658785 -148.510916 
L 548.872574 -147.55062 
L 549.086363 -146.596056 
L 549.300153 -145.647345 
L 549.513942 -144.704601 
L 549.727731 -143.767936 
L 549.94152 -142.837458 
L 550.155309 -141.913274 
L 550.369098 -140.995485 
L 550.582887 -140.084189 
L 550.796676 -139.179481 
L 551.010465 -138.281453 
L 551.224255 -137.390192 
L 551.438044 -136.505784 
L 551.651833 -135.628311 
L 551.865622 -134.757849 
L 552.079411 -133.894475 
L 552.2932 -133.038259 
L 552.506989 -132.189269 
L 552.720778 -131.347571 
L 552.934567 -130.513226 
L 553.148357 -129.686293 
L 553.362146 -128.866827 
L 553.575935 -128.05488 
L 553.789724 -127.250501 
L 554.003513 -126.453735 
L 554.217302 -125.664626 
L 554.431091 -124.883214 
L 554.64488 -124.109534 
L 554.858669 -123.343622 
L 555.072459 -122.585506 
L 555.286248 -121.835217 
L 555.500037 -121.092777 
L 555.713826 -120.35821 
L 555.927615 -119.631536 
L 556.141404 -118.912769 
L 556.355193 -118.201925 
L 556.568982 -117.499015 
L 556.782771 -116.804047 
L 556.99656 -116.117027 
L 557.21035 -115.437958 
L 557.424139 -114.766842 
L 557.637928 -114.103677 
L 557.851717 -113.448459 
L 558.065506 -112.801182 
L 558.279295 -112.161836 
L 558.493084 -111.530411 
L 558.706873 -110.906893 
L 558.920662 -110.291268 
L 559.134452 -109.683517 
L 559.348241 -109.083621 
L 559.56203 -108.491558 
L 559.775819 -107.907304 
L 559.989608 -107.330834 
L 560.203397 -106.76212 
L 560.417186 -106.201132 
L 560.630975 -105.647839 
L 560.844764 -105.102208 
L 561.058554 -104.564204 
L 561.272343 -104.033791 
L 561.486132 -103.51093 
L 561.699921 -102.995581 
L 561.91371 -102.487704 
L 562.127499 -101.987255 
L 562.341288 -101.494191 
L 562.555077 -101.008465 
L 562.768866 -100.530031 
L 562.982656 -100.058841 
L 563.196445 -99.594844 
L 563.410234 -99.137991 
L 563.624023 -98.688228 
L 563.837812 -98.245504 
L 564.051601 -97.809764 
L 564.26539 -97.380953 
L 564.479179 -96.959015 
L 564.692968 -96.543893 
L 564.906758 -96.135528 
L 565.120547 -95.733862 
L 565.334336 -95.338835 
L 565.548125 -94.950387 
L 565.761914 -94.568457 
L 565.975703 -94.192982 
L 566.189492 -93.823901 
L 566.403281 -93.46115 
L 566.61707 -93.104665 
L 566.830859 -92.754382 
L 567.044649 -92.410237 
L 567.258438 -92.072164 
L 567.472227 -91.740097 
L 567.686016 -91.413972 
L 567.899805 -91.09372 
L 568.113594 -90.779276 
L 568.327383 -90.470572 
L 568.541172 -90.167542 
L 568.754961 -89.870118 
L 568.968751 -89.578233 
L 569.18254 -89.291818 
L 569.396329 -89.010805 
L 569.610118 -88.735128 
L 569.823907 -88.464717 
L 570.037696 -88.199506 
L 570.251485 -87.939425 
L 570.465274 -87.684406 
L 570.679063 -87.434383 
L 570.892853 -87.189286 
L 571.106642 -86.949049 
L 571.320431 -86.713603 
L 571.53422 -86.482881 
L 571.748009 -86.256816 
L 571.961798 -86.03534 
L 572.175587 -85.818387 
L 572.389376 -85.605891 
L 572.603165 -85.397784 
L 572.816955 -85.194001 
L 573.030744 -84.994476 
L 573.244533 -84.799144 
L 573.458322 -84.607939 
L 573.672111 -84.420797 
L 573.8859 -84.237653 
L 574.099689 -84.058444 
L 574.313478 -83.883106 
L 574.527267 -83.711576 
L 574.741057 -83.543792 
L 574.954846 -83.37969 
L 575.168635 -83.21921 
L 575.382424 -83.062291 
L 575.596213 -82.908871 
L 575.810002 -82.75889 
L 576.023791 -82.61229 
L 576.23758 -82.46901 
L 576.451369 -82.328991 
L 576.665158 -82.192177 
L 576.878948 -82.058509 
L 577.092737 -81.927931 
L 577.306526 -81.800386 
L 577.520315 -81.675819 
L 577.734104 -81.554174 
L 577.947893 -81.435397 
L 578.161682 -81.319433 
L 578.375471 -81.20623 
L 578.58926 -81.095735 
L 578.80305 -80.987896 
L 579.016839 -80.88266 
L 579.230628 -80.779978 
L 579.444417 -80.6798 
L 579.658206 -80.582074 
L 579.871995 -80.486754 
L 580.085784 -80.39379 
L 580.299573 -80.303134 
L 580.513362 -80.21474 
L 580.727152 -80.128562 
L 580.940941 -80.044553 
L 581.15473 -79.962668 
L 581.368519 -79.882863 
L 581.582308 -79.805095 
L 581.796097 -79.72932 
L 582.009886 -79.655495 
L 582.223675 -79.583579 
L 582.437464 -79.51353 
L 582.651254 -79.445309 
L 582.865043 -79.378874 
L 583.078832 -79.314187 
L 583.292621 -79.251209 
L 583.50641 -79.189901 
L 583.720199 -79.130227 
L 583.933988 -79.07215 
L 584.147777 -79.015633 
L 584.361566 -78.960641 
L 584.575355 -78.907138 
L 584.789145 -78.855091 
L 585.002934 -78.804466 
L 585.216723 -78.755229 
L 585.430512 -78.707348 
L 585.644301 -78.660791 
L 585.85809 -78.615526 
L 586.071879 -78.571523 
L 586.285668 -78.528752 
L 586.499457 -78.487182 
L 586.713247 -78.446785 
L 586.927036 -78.407531 
L 587.140825 -78.369394 
L 587.354614 -78.332345 
L 587.568403 -78.296357 
L 587.782192 -78.261405 
L 587.995981 -78.227461 
L 588.20977 -78.194502 
L 588.423559 -78.162501 
L 588.637349 -78.131435 
L 588.851138 -78.101279 
L 589.064927 -78.072011 
L 589.278716 -78.043607 
L 589.492505 -78.016045 
L 589.706294 -77.989303 
L 589.920083 -77.96336 
L 590.133872 -77.938195 
L 590.347661 -77.913786 
L 590.561451 -77.890115 
L 590.77524 -77.867161 
L 590.989029 -77.844905 
L 591.202818 -77.823328 
L 591.416607 -77.802412 
L 591.630396 -77.78214 
L 591.844185 -77.762492 
L 592.057974 -77.743453 
L 592.271763 -77.725006 
L 592.485553 -77.707134 
L 592.699342 -77.68982 
L 592.913131 -77.673051 
L 593.12692 -77.65681 
L 593.340709 -77.641082 
L 593.554498 -77.625853 
L 593.768287 -77.61111 
L 593.982076 -77.596837 
L 594.195865 -77.583021 
L 594.409654 -77.56965 
L 594.623444 -77.55671 
L 594.837233 -77.544189 
L 595.051022 -77.532075 
L 595.264811 -77.520356 
L 595.4786 -77.50902 
L 595.692389 -77.498056 
L 595.906178 -77.487453 
L 596.119967 -77.4772 
L 596.333756 -77.467286 
L 596.547546 -77.457703 
L 596.761335 -77.448439 
L 596.975124 -77.439484 
L 597.188913 -77.430831 
L 597.402702 -77.422469 
L 597.616491 -77.414389 
L 597.83028 -77.406583 
L 598.044069 -77.399043 
L 598.257858 -77.391759 
L 598.471648 -77.384725 
L 598.685437 -77.377932 
L 598.899226 -77.371374 
L 599.113015 -77.365041 
L 599.326804 -77.358928 
L 599.540593 -77.353028 
L 599.754382 -77.347333 
L 599.968171 -77.341837 
L 600.18196 -77.336534 
L 600.39575 -77.331418 
L 600.609539 -77.326482 
L 600.823328 -77.32172 
L 601.037117 -77.317128 
L 601.250906 -77.312699 
L 601.464695 -77.308429 
L 601.678484 -77.304311 
L 601.892273 -77.300342 
L 602.106062 -77.296515 
L 602.319852 -77.292827 
L 602.533641 -77.289272 
L 602.74743 -77.285847 
L 602.961219 -77.282546 
L 603.175008 -77.279366 
L 603.388797 -77.276303 
L 603.602586 -77.273353 
L 603.816375 -77.270511 
L 604.030164 -77.267774 
L 604.243953 -77.265139 
L 604.457743 -77.262602 
L 604.671532 -77.26016 
L 604.885321 -77.257809 
L 605.09911 -77.255546 
L 605.312899 -77.253369 
L 605.526688 -77.251273 
L 605.740477 -77.249257 
L 605.954266 -77.247317 
L 606.168055 -77.245452 
L 606.381845 -77.243657 
L 606.595634 -77.241931 
L 606.809423 -77.240271 
L 607.023212 -77.238675 
L 607.237001 -77.237141 
L 607.45079 -77.235666 
L 607.664579 -77.234248 
L 607.878368 -77.232886 
L 608.092157 -77.231576 
L 608.305947 -77.230318 
L 608.519736 -77.229109 
L 608.733525 -77.227948 
L 608.947314 -77.226832 
L 609.161103 -77.225761 
L 609.374892 -77.224732 
L 609.588681 -77.223744 
L 609.80247 -77.222795 
L 610.016259 -77.221884 
L 610.230049 -77.22101 
L 610.443838 -77.22017 
L 610.657627 -77.219365 
L 610.871416 -77.218592 
L 611.085205 -77.21785 
L 611.298994 -77.217139 
L 611.512783 -77.216456 
L 611.726572 -77.215802 
L 611.940361 -77.215174 
L 612.154151 -77.214571 
L 612.36794 -77.213994 
L 612.581729 -77.21344 
L 612.795518 -77.212909 
L 613.009307 -77.212401 
L 613.223096 -77.211913 
L 613.436885 -77.211446 
L 613.650674 -77.210998 
L 613.864463 -77.210569 
L 614.078252 -77.210157 
L 614.292042 -77.209764 
L 614.505831 -77.209386 
L 614.71962 -77.209025 
L 614.933409 -77.208679 
L 615.147198 -77.208348 
L 615.360987 -77.20803 
L 615.574776 -77.207727 
L 615.788565 -77.207436 
L 616.002354 -77.207158 
L 616.216144 -77.206892 
L 616.429933 -77.206637 
L 616.643722 -77.206393 
L 616.857511 -77.20616 
L 617.0713 -77.205937 
L 617.285089 -77.205723 
L 617.498878 -77.205519 
L 617.712667 -77.205324 
L 617.926456 -77.205137 
L 618.140246 -77.204959 
L 618.354035 -77.204788 
L 618.567824 -77.204625 
L 618.781613 -77.20447 
L 618.995402 -77.204321 
L 619.209191 -77.204178 
L 619.42298 -77.204042 
L 619.636769 -77.203913 
L 619.850558 -77.203788 
L 620.064348 -77.20367 
L 620.278137 -77.203557 
L 620.491926 -77.203449 
L 620.705715 -77.203345 
L 620.919504 -77.203247 
L 621.133293 -77.203153 
L 621.347082 -77.203063 
L 621.560871 -77.202977 
L 621.77466 -77.202896 
L 621.988449 -77.202818 
L 622.202239 -77.202743 
L 622.416028 -77.202672 
L 622.629817 -77.202604 
L 622.843606 -77.20254 
L 623.057395 -77.202478 
L 623.271184 -77.202419 
L 623.484973 -77.202363 
L 623.698762 -77.20231 
L 623.912551 -77.202259 
L 624.126341 -77.20221 
L 624.34013 -77.202164 
L 624.553919 -77.20212 
L 624.767708 -77.202078 
L 624.981497 -77.202038 
L 625.195286 -77.202 
L 625.409075 -77.201963 
L 625.622864 -77.201929 
L 625.836653 -77.201896 
L 626.050443 -77.201865 
L 626.264232 -77.201835 
L 626.478021 -77.201806 
L 626.69181 -77.201779 
L 626.905599 -77.201753 
L 627.119388 -77.201729 
L 627.333177 -77.201705 
L 627.546966 -77.201683 
L 627.760755 -77.201662 
L 627.974545 -77.201642 
L 628.188334 -77.201623 
L 628.402123 -77.201605 
L 628.615912 -77.201587 
L 628.829701 -77.201571 
L 629.04349 -77.201555 
L 629.257279 -77.20154 
L 629.471068 -77.201526 
L 629.684857 -77.201513 
L 629.898647 -77.2015 
L 630.112436 -77.201488 
L 630.326225 -77.201476 
L 630.540014 -77.201465 
L 630.753803 -77.201455 
L 630.967592 -77.201445 
L 631.181381 -77.201436 
L 631.39517 -77.201427 
L 631.608959 -77.201418 
L 631.822748 -77.20141 
L 632.036538 -77.201403 
L 632.250327 -77.201395 
L 632.464116 -77.201389 
L 632.677905 -77.201382 
L 632.891694 -77.201376 
L 633.105483 -77.20137 
L 633.319272 -77.201364 
L 633.533061 -77.201359 
L 633.74685 -77.201354 
L 633.96064 -77.201349 
L 634.174429 -77.201345 
L 634.388218 -77.201341 
L 634.602007 -77.201336 
L 634.815796 -77.201333 
L 635.029585 -77.201329 
L 635.243374 -77.201326 
L 635.457163 -77.201322 
L 635.670952 -77.201319 
L 635.884742 -77.201316 
L 636.098531 -77.201313 
L 636.31232 -77.201311 
L 636.526109 -77.201308 
L 636.739898 -77.201306 
L 636.953687 -77.201304 
L 637.167476 -77.201302 
L 637.381265 -77.2013 
L 637.595054 -77.201298 
L 637.808844 -77.201296 
L 638.022633 -77.201294 
L 638.236422 -77.201292 
L 638.450211 -77.201291 
L 638.664 -77.201289 
L 638.877789 -77.201288 
L 639.091578 -77.201287 
L 639.305367 -77.201286 
L 639.519156 -77.201284 
L 639.732946 -77.201283 
L 639.946735 -77.201282 
L 640.160524 -77.201281 
L 640.374313 -77.20128 
L 640.588102 -77.20128 
L 640.801891 -77.201279 
L 641.01568 -77.201278 
L 641.229469 -77.201277 
L 641.443258 -77.201276 
L 641.657047 -77.201276 
L 641.870837 -77.201275 
L 642.084626 -77.201275 
L 642.298415 -77.201274 
L 642.512204 -77.201274 
L 642.725993 -77.201273 
L 642.939782 -77.201273 
L 643.153571 -77.201272 
L 643.36736 -77.201272 
L 643.581149 -77.201271 
L 643.794939 -77.201271 
L 644.008728 -77.201271 
L 644.222517 -77.20127 
L 644.436306 -77.20127 
L 644.650095 -77.20127 
L 644.863884 -77.201269 
L 645.077673 -77.201269 
L 645.291462 -77.201269 
L 645.505251 -77.201269 
L 645.719041 -77.201268 
L 645.93283 -77.201268 
L 646.146619 -77.201268 
L 646.360408 -77.201268 
L 646.574197 -77.201268 
L 646.787986 -77.201267 
L 647.001775 -77.201267 
L 647.215564 -77.201267 
L 647.429353 -77.201267 
L 647.643143 -77.201267 
L 647.856932 -77.201267 
L 648.070721 -77.201267 
L 648.28451 -77.201267 
L 648.498299 -77.201266 
L 648.712088 -77.201266 
L 648.925877 -77.201266 
L 649.139666 -77.201266 
L 649.353455 -77.201266 
L 649.567245 -77.201266 
L 649.781034 -77.201266 
L 649.994823 -77.201266 
L 650.208612 -77.201266 
L 650.422401 -77.201266 
L 650.63619 -77.201266 
L 650.849979 -77.201266 
L 651.063768 -77.201266 
L 651.277557 -77.201266 
L 651.491346 -77.201266 
L 651.705136 -77.201266 
L 651.918925 -77.201265 
L 652.132714 -77.201265 
L 652.346503 -77.201265 
L 652.560292 -77.201265 
L 652.774081 -77.201265 
L 652.98787 -77.201265 
L 653.201659 -77.201265 
L 653.415448 -77.201265 
L 653.629238 -77.201265 
L 653.843027 -77.201265 
L 654.056816 -77.201265 
L 654.270605 -77.201265 
L 654.484394 -77.201265 
L 654.698183 -77.201265 
L 654.911972 -77.201265 
L 655.125761 -77.201265 
L 655.33955 -77.201265 
L 655.55334 -77.201265 
L 655.767129 -77.201265 
L 655.980918 -77.201265 
L 656.194707 -77.201265 
L 656.408496 -77.201265 
L 656.622285 -77.201265 
L 656.836074 -77.201265 
L 657.049863 -77.201265 
L 657.263652 -77.201265 
L 657.477442 -77.201265 
L 657.691231 -77.201265 
L 657.90502 -77.201265 
L 658.118809 -77.201265 
L 658.332598 -77.201265 
L 658.546387 -77.201265 
L 658.760176 -77.201265 
L 658.973965 -77.201265 
L 659.187754 -77.201265 
L 659.401543 -77.201265 
L 659.615333 -77.201265 
L 659.829122 -77.201265 
L 660.042911 -77.201265 
L 660.2567 -77.201265 
L 660.470489 -77.201265 
L 660.684278 -77.201265 
L 660.898067 -77.201265 
L 661.111856 -77.201265 
L 661.325645 -77.201265 
L 661.539435 -77.201265 
L 661.753224 -77.201265 
L 661.967013 -77.201265 
L 662.180802 -77.201265 
L 662.394591 -77.201265 
L 662.60838 -77.201265 
L 662.822169 -77.201265 
L 663.035958 -77.201265 
L 663.249747 -77.201265 
L 663.463537 -77.201265 
L 663.463537 -89.423943 
L 663.463537 -89.423943 
L 663.249747 -89.5009 
L 663.035958 -89.578257 
L 662.822169 -89.656014 
L 662.60838 -89.734174 
L 662.394591 -89.812737 
L 662.180802 -89.891706 
L 661.967013 -89.971081 
L 661.753224 -90.050864 
L 661.539435 -90.131056 
L 661.325645 -90.211659 
L 661.111856 -90.292675 
L 660.898067 -90.374104 
L 660.684278 -90.455949 
L 660.470489 -90.538211 
L 660.2567 -90.62089 
L 660.042911 -90.703989 
L 659.829122 -90.787509 
L 659.615333 -90.871452 
L 659.401543 -90.955819 
L 659.187754 -91.040611 
L 658.973965 -91.12583 
L 658.760176 -91.211477 
L 658.546387 -91.297554 
L 658.332598 -91.384062 
L 658.118809 -91.471003 
L 657.90502 -91.558378 
L 657.691231 -91.646188 
L 657.477442 -91.734436 
L 657.263652 -91.823122 
L 657.049863 -91.912248 
L 656.836074 -92.001815 
L 656.622285 -92.091825 
L 656.408496 -92.182279 
L 656.194707 -92.273179 
L 655.980918 -92.364526 
L 655.767129 -92.456322 
L 655.55334 -92.548568 
L 655.33955 -92.641265 
L 655.125761 -92.734416 
L 654.911972 -92.82802 
L 654.698183 -92.922081 
L 654.484394 -93.016599 
L 654.270605 -93.111575 
L 654.056816 -93.207012 
L 653.843027 -93.30291 
L 653.629238 -93.399272 
L 653.415448 -93.496098 
L 653.201659 -93.593389 
L 652.98787 -93.691149 
L 652.774081 -93.789377 
L 652.560292 -93.888075 
L 652.346503 -93.987245 
L 652.132714 -94.086888 
L 651.918925 -94.187006 
L 651.705136 -94.287599 
L 651.491346 -94.38867 
L 651.277557 -94.49022 
L 651.063768 -94.59225 
L 650.849979 -94.694762 
L 650.63619 -94.797757 
L 650.422401 -94.901237 
L 650.208612 -95.005202 
L 649.994823 -95.109655 
L 649.781034 -95.214597 
L 649.567245 -95.320029 
L 649.353455 -95.425952 
L 649.139666 -95.532369 
L 648.925877 -95.639279 
L 648.712088 -95.746686 
L 648.498299 -95.85459 
L 648.28451 -95.962993 
L 648.070721 -96.071896 
L 647.856932 -96.1813 
L 647.643143 -96.291207 
L 647.429353 -96.401619 
L 647.215564 -96.512536 
L 647.001775 -96.62396 
L 646.787986 -96.735892 
L 646.574197 -96.848334 
L 646.360408 -96.961288 
L 646.146619 -97.074754 
L 645.93283 -97.188734 
L 645.719041 -97.303229 
L 645.505251 -97.418241 
L 645.291462 -97.533771 
L 645.077673 -97.64982 
L 644.863884 -97.766391 
L 644.650095 -97.883483 
L 644.436306 -98.001099 
L 644.222517 -98.119239 
L 644.008728 -98.237906 
L 643.794939 -98.357101 
L 643.581149 -98.476824 
L 643.36736 -98.597078 
L 643.153571 -98.717863 
L 642.939782 -98.839181 
L 642.725993 -98.961033 
L 642.512204 -99.083421 
L 642.298415 -99.206346 
L 642.084626 -99.329808 
L 641.870837 -99.453811 
L 641.657047 -99.578354 
L 641.443258 -99.703439 
L 641.229469 -99.829068 
L 641.01568 -99.955242 
L 640.801891 -100.081961 
L 640.588102 -100.209228 
L 640.374313 -100.337043 
L 640.160524 -100.465409 
L 639.946735 -100.594325 
L 639.732946 -100.723794 
L 639.519156 -100.853817 
L 639.305367 -100.984394 
L 639.091578 -101.115528 
L 638.877789 -101.24722 
L 638.664 -101.37947 
L 638.450211 -101.51228 
L 638.236422 -101.645651 
L 638.022633 -101.779585 
L 637.808844 -101.914082 
L 637.595054 -102.049145 
L 637.381265 -102.184773 
L 637.167476 -102.320969 
L 636.953687 -102.457734 
L 636.739898 -102.595068 
L 636.526109 -102.732974 
L 636.31232 -102.871451 
L 636.098531 -103.010502 
L 635.884742 -103.150128 
L 635.670952 -103.290329 
L 635.457163 -103.431107 
L 635.243374 -103.572463 
L 635.029585 -103.714399 
L 634.815796 -103.856915 
L 634.602007 -104.000012 
L 634.388218 -104.143692 
L 634.174429 -104.287956 
L 633.96064 -104.432805 
L 633.74685 -104.578241 
L 633.533061 -104.724263 
L 633.319272 -104.870874 
L 633.105483 -105.018074 
L 632.891694 -105.165865 
L 632.677905 -105.314247 
L 632.464116 -105.463223 
L 632.250327 -105.612792 
L 632.036538 -105.762956 
L 631.822748 -105.913716 
L 631.608959 -106.065073 
L 631.39517 -106.217028 
L 631.181381 -106.369583 
L 630.967592 -106.522737 
L 630.753803 -106.676493 
L 630.540014 -106.830851 
L 630.326225 -106.985812 
L 630.112436 -107.141378 
L 629.898647 -107.297549 
L 629.684857 -107.454327 
L 629.471068 -107.611711 
L 629.257279 -107.769704 
L 629.04349 -107.928307 
L 628.829701 -108.087519 
L 628.615912 -108.247343 
L 628.402123 -108.407779 
L 628.188334 -108.568828 
L 627.974545 -108.730491 
L 627.760755 -108.892769 
L 627.546966 -109.055664 
L 627.333177 -109.219175 
L 627.119388 -109.383303 
L 626.905599 -109.548051 
L 626.69181 -109.713418 
L 626.478021 -109.879405 
L 626.264232 -110.046014 
L 626.050443 -110.213245 
L 625.836653 -110.381098 
L 625.622864 -110.549576 
L 625.409075 -110.718679 
L 625.195286 -110.888407 
L 624.981497 -111.058761 
L 624.767708 -111.229743 
L 624.553919 -111.401353 
L 624.34013 -111.573591 
L 624.126341 -111.746459 
L 623.912551 -111.919958 
L 623.698762 -112.094087 
L 623.484973 -112.268849 
L 623.271184 -112.444243 
L 623.057395 -112.620271 
L 622.843606 -112.796933 
L 622.629817 -112.974229 
L 622.416028 -113.152162 
L 622.202239 -113.33073 
L 621.988449 -113.509936 
L 621.77466 -113.689779 
L 621.560871 -113.87026 
L 621.347082 -114.051381 
L 621.133293 -114.233141 
L 620.919504 -114.415542 
L 620.705715 -114.598583 
L 620.491926 -114.782266 
L 620.278137 -114.966592 
L 620.064348 -115.15156 
L 619.850558 -115.337171 
L 619.636769 -115.523427 
L 619.42298 -115.710327 
L 619.209191 -115.897872 
L 618.995402 -116.086062 
L 618.781613 -116.274899 
L 618.567824 -116.464383 
L 618.354035 -116.654514 
L 618.140246 -116.845293 
L 617.926456 -117.03672 
L 617.712667 -117.228796 
L 617.498878 -117.421521 
L 617.285089 -117.614896 
L 617.0713 -117.808921 
L 616.857511 -118.003596 
L 616.643722 -118.198923 
L 616.429933 -118.394901 
L 616.216144 -118.591531 
L 616.002354 -118.788813 
L 615.788565 -118.986748 
L 615.574776 -119.185336 
L 615.360987 -119.384577 
L 615.147198 -119.584472 
L 614.933409 -119.785021 
L 614.71962 -119.986225 
L 614.505831 -120.188083 
L 614.292042 -120.390596 
L 614.078252 -120.593765 
L 613.864463 -120.797589 
L 613.650674 -121.002069 
L 613.436885 -121.207205 
L 613.223096 -121.412997 
L 613.009307 -121.619446 
L 612.795518 -121.826552 
L 612.581729 -122.034315 
L 612.36794 -122.242735 
L 612.154151 -122.451813 
L 611.940361 -122.661548 
L 611.726572 -122.87194 
L 611.512783 -123.082991 
L 611.298994 -123.294699 
L 611.085205 -123.507066 
L 610.871416 -123.720091 
L 610.657627 -123.933774 
L 610.443838 -124.148115 
L 610.230049 -124.363115 
L 610.016259 -124.578773 
L 609.80247 -124.79509 
L 609.588681 -125.012065 
L 609.374892 -125.229699 
L 609.161103 -125.447991 
L 608.947314 -125.666942 
L 608.733525 -125.886551 
L 608.519736 -126.106819 
L 608.305947 -126.327745 
L 608.092157 -126.549329 
L 607.878368 -126.771571 
L 607.664579 -126.994472 
L 607.45079 -127.21803 
L 607.237001 -127.442246 
L 607.023212 -127.66712 
L 606.809423 -127.892652 
L 606.595634 -128.118841 
L 606.381845 -128.345687 
L 606.168055 -128.57319 
L 605.954266 -128.80135 
L 605.740477 -129.030166 
L 605.526688 -129.259638 
L 605.312899 -129.489767 
L 605.09911 -129.720551 
L 604.885321 -129.951991 
L 604.671532 -130.184086 
L 604.457743 -130.416836 
L 604.243953 -130.65024 
L 604.030164 -130.884298 
L 603.816375 -131.11901 
L 603.602586 -131.354376 
L 603.388797 -131.590394 
L 603.175008 -131.827065 
L 602.961219 -132.064388 
L 602.74743 -132.302363 
L 602.533641 -132.540989 
L 602.319852 -132.780266 
L 602.106062 -133.020194 
L 601.892273 -133.260771 
L 601.678484 -133.501997 
L 601.464695 -133.743872 
L 601.250906 -133.986395 
L 601.037117 -134.229566 
L 600.823328 -134.473384 
L 600.609539 -134.717849 
L 600.39575 -134.962959 
L 600.18196 -135.208714 
L 599.968171 -135.455114 
L 599.754382 -135.702158 
L 599.540593 -135.949845 
L 599.326804 -136.198175 
L 599.113015 -136.447146 
L 598.899226 -136.696758 
L 598.685437 -136.947011 
L 598.471648 -137.197904 
L 598.257858 -137.449435 
L 598.044069 -137.701604 
L 597.83028 -137.95441 
L 597.616491 -138.207853 
L 597.402702 -138.461931 
L 597.188913 -138.716644 
L 596.975124 -138.971991 
L 596.761335 -139.227971 
L 596.547546 -139.484583 
L 596.333756 -139.741825 
L 596.119967 -139.999698 
L 595.906178 -140.2582 
L 595.692389 -140.517331 
L 595.4786 -140.777088 
L 595.264811 -141.037472 
L 595.051022 -141.298481 
L 594.837233 -141.560113 
L 594.623444 -141.822369 
L 594.409654 -142.085247 
L 594.195865 -142.348746 
L 593.982076 -142.612865 
L 593.768287 -142.877602 
L 593.554498 -143.142957 
L 593.340709 -143.408928 
L 593.12692 -143.675514 
L 592.913131 -143.942714 
L 592.699342 -144.210527 
L 592.485553 -144.478951 
L 592.271763 -144.747986 
L 592.057974 -145.017629 
L 591.844185 -145.28788 
L 591.630396 -145.558738 
L 591.416607 -145.8302 
L 591.202818 -146.102266 
L 590.989029 -146.374935 
L 590.77524 -146.648205 
L 590.561451 -146.922074 
L 590.347661 -147.196541 
L 590.133872 -147.471605 
L 589.920083 -147.747264 
L 589.706294 -148.023517 
L 589.492505 -148.300362 
L 589.278716 -148.577798 
L 589.064927 -148.855823 
L 588.851138 -149.134436 
L 588.637349 -149.413636 
L 588.423559 -149.69342 
L 588.20977 -149.973786 
L 587.995981 -150.254735 
L 587.782192 -150.536263 
L 587.568403 -150.818369 
L 587.354614 -151.101051 
L 587.140825 -151.384309 
L 586.927036 -151.668139 
L 586.713247 -151.952541 
L 586.499457 -152.237512 
L 586.285668 -152.523051 
L 586.071879 -152.809157 
L 585.85809 -153.095826 
L 585.644301 -153.383058 
L 585.430512 -153.670851 
L 585.216723 -153.959202 
L 585.002934 -154.24811 
L 584.789145 -154.537573 
L 584.575355 -154.82759 
L 584.361566 -155.118157 
L 584.147777 -155.409274 
L 583.933988 -155.700938 
L 583.720199 -155.993147 
L 583.50641 -156.285899 
L 583.292621 -156.579193 
L 583.078832 -156.873026 
L 582.865043 -157.167396 
L 582.651254 -157.462301 
L 582.437464 -157.757739 
L 582.223675 -158.053708 
L 582.009886 -158.350206 
L 581.796097 -158.64723 
L 581.582308 -158.944779 
L 581.368519 -159.24285 
L 581.15473 -159.541441 
L 580.940941 -159.84055 
L 580.727152 -160.140174 
L 580.513362 -160.440312 
L 580.299573 -160.74096 
L 580.085784 -161.042118 
L 579.871995 -161.343781 
L 579.658206 -161.645949 
L 579.444417 -161.948618 
L 579.230628 -162.251787 
L 579.016839 -162.555453 
L 578.80305 -162.859613 
L 578.58926 -163.164265 
L 578.375471 -163.469407 
L 578.161682 -163.775036 
L 577.947893 -164.08115 
L 577.734104 -164.387745 
L 577.520315 -164.694821 
L 577.306526 -165.002373 
L 577.092737 -165.3104 
L 576.878948 -165.618899 
L 576.665158 -165.927867 
L 576.451369 -166.237302 
L 576.23758 -166.547201 
L 576.023791 -166.857562 
L 575.810002 -167.168381 
L 575.596213 -167.479656 
L 575.382424 -167.791384 
L 575.168635 -168.103563 
L 574.954846 -168.41619 
L 574.741057 -168.729262 
L 574.527267 -169.042776 
L 574.313478 -169.35673 
L 574.099689 -169.67112 
L 573.8859 -169.985944 
L 573.672111 -170.301199 
L 573.458322 -170.616881 
L 573.244533 -170.932989 
L 573.030744 -171.24952 
L 572.816955 -171.566469 
L 572.603165 -171.883835 
L 572.389376 -172.201614 
L 572.175587 -172.519803 
L 571.961798 -172.8384 
L 571.748009 -173.157401 
L 571.53422 -173.476803 
L 571.320431 -173.796604 
L 571.106642 -174.116799 
L 570.892853 -174.437387 
L 570.679063 -174.758363 
L 570.465274 -175.079725 
L 570.251485 -175.40147 
L 570.037696 -175.723594 
L 569.823907 -176.046094 
L 569.610118 -176.368967 
L 569.396329 -176.692209 
L 569.18254 -177.015818 
L 568.968751 -177.339791 
L 568.754961 -177.664123 
L 568.541172 -177.988812 
L 568.327383 -178.313854 
L 568.113594 -178.639246 
L 567.899805 -178.964985 
L 567.686016 -179.291066 
L 567.472227 -179.617488 
L 567.258438 -179.944246 
L 567.044649 -180.271337 
L 566.830859 -180.598757 
L 566.61707 -180.926503 
L 566.403281 -181.254572 
L 566.189492 -181.58296 
L 565.975703 -181.911663 
L 565.761914 -182.240679 
L 565.548125 -182.570003 
L 565.334336 -182.899631 
L 565.120547 -183.229561 
L 564.906758 -183.559788 
L 564.692968 -183.89031 
L 564.479179 -184.221122 
L 564.26539 -184.55222 
L 564.051601 -184.883602 
L 563.837812 -185.215263 
L 563.624023 -185.547199 
L 563.410234 -185.879407 
L 563.196445 -186.211884 
L 562.982656 -186.544625 
L 562.768866 -186.877626 
L 562.555077 -187.210884 
L 562.341288 -187.544395 
L 562.127499 -187.878156 
L 561.91371 -188.212161 
L 561.699921 -188.546408 
L 561.486132 -188.880893 
L 561.272343 -189.215611 
L 561.058554 -189.550559 
L 560.844764 -189.885733 
L 560.630975 -190.221128 
L 560.417186 -190.556742 
L 560.203397 -190.892569 
L 559.989608 -191.228606 
L 559.775819 -191.564849 
L 559.56203 -191.901294 
L 559.348241 -192.237937 
L 559.134452 -192.574774 
L 558.920662 -192.9118 
L 558.706873 -193.249012 
L 558.493084 -193.586405 
L 558.279295 -193.923976 
L 558.065506 -194.26172 
L 557.851717 -194.599633 
L 557.637928 -194.93771 
L 557.424139 -195.275949 
L 557.21035 -195.614344 
L 556.99656 -195.952891 
L 556.782771 -196.291586 
L 556.568982 -196.630425 
L 556.355193 -196.969404 
L 556.141404 -197.308518 
L 555.927615 -197.647763 
L 555.713826 -197.987134 
L 555.500037 -198.326628 
L 555.286248 -198.66624 
L 555.072459 -199.005966 
L 554.858669 -199.3458 
L 554.64488 -199.68574 
L 554.431091 -200.02578 
L 554.217302 -200.365916 
L 554.003513 -200.706144 
L 553.789724 -201.046459 
L 553.575935 -201.386857 
L 553.362146 -201.727334 
L 553.148357 -202.067884 
L 552.934567 -202.408503 
L 552.720778 -202.749187 
L 552.506989 -203.089932 
L 552.2932 -203.430732 
L 552.079411 -203.771584 
L 551.865622 -204.112482 
L 551.651833 -204.453422 
L 551.438044 -204.7944 
L 551.224255 -205.135411 
L 551.010465 -205.47645 
L 550.796676 -205.817512 
L 550.582887 -206.158594 
L 550.369098 -206.49969 
L 550.155309 -206.840796 
L 549.94152 -207.181907 
L 549.727731 -207.523018 
L 549.513942 -207.864125 
L 549.300153 -208.205222 
L 549.086363 -208.546306 
L 548.872574 -208.887372 
L 548.658785 -209.228414 
L 548.444996 -209.569428 
L 548.231207 -209.910409 
L 548.017418 -210.251353 
L 547.803629 -210.592254 
L 547.58984 -210.933108 
L 547.376051 -211.27391 
L 547.162262 -211.614655 
L 546.948472 -211.955338 
L 546.734683 -212.295955 
L 546.520894 -212.6365 
L 546.307105 -212.976969 
L 546.093316 -213.317357 
L 545.879527 -213.657659 
L 545.665738 -213.99787 
L 545.451949 -214.337985 
L 545.23816 -214.677999 
L 545.02437 -215.017907 
L 544.810581 -215.357705 
L 544.596792 -215.697386 
L 544.383003 -216.036948 
L 544.169214 -216.376383 
L 543.955425 -216.715688 
L 543.741636 -217.054858 
L 543.527847 -217.393887 
L 543.314058 -217.73277 
L 543.100268 -218.071502 
L 542.886479 -218.410079 
L 542.67269 -218.748495 
L 542.458901 -219.086746 
L 542.245112 -219.424825 
L 542.031323 -219.762729 
L 541.817534 -220.100451 
L 541.603745 -220.437988 
L 541.389956 -220.775333 
L 541.176166 -221.112483 
L 540.962377 -221.44943 
L 540.748588 -221.786172 
L 540.534799 -222.122702 
L 540.32101 -222.459015 
L 540.107221 -222.795106 
L 539.893432 -223.13097 
L 539.679643 -223.466602 
L 539.465854 -223.801996 
L 539.252064 -224.137149 
L 539.038275 -224.472053 
L 538.824486 -224.806705 
L 538.610697 -225.141098 
L 538.396908 -225.475229 
L 538.183119 -225.80909 
L 537.96933 -226.142679 
L 537.755541 -226.475988 
L 537.541752 -226.809013 
L 537.327963 -227.141749 
L 537.114173 -227.474191 
L 536.900384 -227.806333 
L 536.686595 -228.138169 
L 536.472806 -228.469696 
L 536.259017 -228.800907 
L 536.045228 -229.131797 
L 535.831439 -229.462361 
L 535.61765 -229.792594 
L 535.403861 -230.122491 
L 535.190071 -230.452045 
L 534.976282 -230.781252 
L 534.762493 -231.110107 
L 534.548704 -231.438605 
L 534.334915 -231.766739 
L 534.121126 -232.094505 
L 533.907337 -232.421898 
L 533.693548 -232.748912 
L 533.479759 -233.075541 
L 533.265969 -233.401781 
L 533.05218 -233.727626 
L 532.838391 -234.053071 
L 532.624602 -234.378111 
L 532.410813 -234.70274 
L 532.197024 -235.026953 
L 531.983235 -235.350744 
L 531.769446 -235.674109 
L 531.555657 -235.997042 
L 531.341867 -236.319537 
L 531.128078 -236.64159 
L 530.914289 -236.963195 
L 530.7005 -237.284346 
L 530.486711 -237.605038 
L 530.272922 -237.925267 
L 530.059133 -238.245026 
L 529.845344 -238.56431 
L 529.631555 -238.883114 
L 529.417765 -239.201433 
L 529.203976 -239.519261 
L 528.990187 -239.836593 
L 528.776398 -240.153423 
L 528.562609 -240.469747 
L 528.34882 -240.785558 
L 528.135031 -241.100852 
L 527.921242 -241.415623 
L 527.707453 -241.729866 
L 527.493664 -242.043576 
L 527.279874 -242.356746 
L 527.066085 -242.669373 
L 526.852296 -242.981449 
L 526.638507 -243.292971 
L 526.424718 -243.603933 
L 526.210929 -243.91433 
L 525.99714 -244.224155 
L 525.783351 -244.533404 
L 525.569562 -244.842072 
L 525.355772 -245.150152 
L 525.141983 -245.457641 
L 524.928194 -245.764532 
L 524.714405 -246.07082 
z
" style="stroke: #c2410c; stroke-opacity: 0.12"/>
    </defs>
    <g clip-path="url(#p4abadbd2be)">
     <use xlink:href="#m12a88574a9" x="0" y="406.018359" style="fill: #c2410c; fill-opacity: 0.12; stroke: #c2410c; stroke-opacity: 0.12"/>
    </g>
   </g>
   <g id="patch_3">
    <path d="M 22.31 367.998047 
L 663.463537 367.998047 
" style="fill: none; stroke: #d5d8ee; stroke-width: 0.8; stroke-linejoin: miter; stroke-linecap: square"/>
   </g>
   <g id="text_11">
    <text style="font-style: italic; font-size: 8.5px; font-family: 'DejaVu Sans', 'Segoe UI', 'Arial', sans-serif; text-anchor: middle; fill: #6b6f99" x="57.03915" y="44.219706" transform="rotate(-0 57.03915 44.219706)">radio</text>
   </g>
   <g id="text_12">
    <text style="font-style: italic; font-size: 8.5px; font-family: 'DejaVu Sans', 'Segoe UI', 'Arial', sans-serif; text-anchor: middle; fill: #6b6f99" x="222.67048" y="44.389706" transform="rotate(-0 222.67048 44.389706)">IR / óptico</text>
   </g>
   <g id="text_13">
    <text style="font-style: italic; font-size: 8.5px; font-family: 'DejaVu Sans', 'Segoe UI', 'Arial', sans-serif; text-anchor: middle; fill: #6b6f99" x="318.843511" y="44.219706" transform="rotate(-0 318.843511 44.219706)">rayos X</text>
   </g>
   <g id="text_14">
    <!-- $\gamma$ (GeV) -->
    <g style="fill: #6b6f99" transform="translate(447.080556 44.211737)">
     <text>
      <tspan x="0" y="-0.171875" style="font-style: oblique; font-size: 8.5px; font-family: 'DejaVu Sans'; fill: #6b6f99">γ</tspan>
      <tspan x="5.030273" y="-0.171875" style="font-style: oblique; font-size: 8.5px; font-family: 'DejaVu Sans'; fill: #6b6f99"> </tspan>
      <tspan x="7.732178" y="-0.171875" style="font-style: oblique; font-size: 8.5px; font-family: 'DejaVu Sans'; fill: #6b6f99">(</tspan>
      <tspan x="11.04834" y="-0.171875" style="font-style: oblique; font-size: 8.5px; font-family: 'DejaVu Sans'; fill: #6b6f99">G</tspan>
      <tspan x="17.63501" y="-0.171875" style="font-style: oblique; font-size: 8.5px; font-family: 'DejaVu Sans'; fill: #6b6f99">e</tspan>
      <tspan x="22.864502" y="-0.171875" style="font-style: oblique; font-size: 8.5px; font-family: 'DejaVu Sans'; fill: #6b6f99">V</tspan>
      <tspan x="28.679199" y="-0.171875" style="font-style: oblique; font-size: 8.5px; font-family: 'DejaVu Sans'; fill: #6b6f99">)</tspan>
     </text>
    </g>
   </g>
   <g id="text_15">
    <text style="font-style: italic; font-size: 8.5px; font-family: 'DejaVu Sans', 'Segoe UI', 'Arial', sans-serif; text-anchor: middle; fill: #6b6f99" x="548.590195" y="44.219706" transform="rotate(-0 548.590195 44.219706)">VHE (TeV)</text>
   </g>
   <g id="text_16">
    <text style="font-style: italic; font-size: 8.5px; font-family: 'DejaVu Sans', 'Segoe UI', 'Arial', sans-serif; text-anchor: middle; fill: #6b6f99" x="628.734387" y="44.219706" transform="rotate(-0 628.734387 44.219706)">PeV</text>
   </g>
   <g id="patch_4">
    <path d="M 105.619344 153.22403 
Q 167.238023 126.183605 227.218633 99.862023 
" style="fill: none; stroke: #4a52a8; stroke-width: 1.6; stroke-linecap: round"/>
    <path d="M 222.30546 99.615581 
L 227.218633 99.862023 
L 224.073576 103.644696 
z
" style="fill: #4a52a8; stroke: #4a52a8; stroke-width: 1.6; stroke-linecap: round"/>
   </g>
   <g id="text_17">
    <text style="font-weight: 700; font-size: 11px; font-family: 'DejaVu Sans', 'Segoe UI', 'Arial', sans-serif; fill: #4a52a8" transform="translate(40.52002 164.385215)">Sincrotrón</text>
    <!-- (electrones $e^-$) -->
    <g style="fill: #4a52a8" transform="translate(24.942988 176.702809)">
     <text>
      <tspan x="0" y="-0.640625" style="font-weight: 700; font-size: 11px; font-family: 'DejaVu Sans'; fill: #4a52a8">(</tspan>
      <tspan x="5.027344" y="-0.640625" style="font-weight: 700; font-size: 11px; font-family: 'DejaVu Sans'; fill: #4a52a8">e</tspan>
      <tspan x="12.487793" y="-0.640625" style="font-weight: 700; font-size: 11px; font-family: 'DejaVu Sans'; fill: #4a52a8">l</tspan>
      <tspan x="16.258301" y="-0.640625" style="font-weight: 700; font-size: 11px; font-family: 'DejaVu Sans'; fill: #4a52a8">e</tspan>
      <tspan x="23.71875" y="-0.640625" style="font-weight: 700; font-size: 11px; font-family: 'DejaVu Sans'; fill: #4a52a8">c</tspan>
      <tspan x="30.239258" y="-0.640625" style="font-weight: 700; font-size: 11px; font-family: 'DejaVu Sans'; fill: #4a52a8">t</tspan>
      <tspan x="35.497559" y="-0.640625" style="font-weight: 700; font-size: 11px; font-family: 'DejaVu Sans'; fill: #4a52a8">r</tspan>
      <tspan x="40.922363" y="-0.640625" style="font-weight: 700; font-size: 11px; font-family: 'DejaVu Sans'; fill: #4a52a8">o</tspan>
      <tspan x="48.479492" y="-0.640625" style="font-weight: 700; font-size: 11px; font-family: 'DejaVu Sans'; fill: #4a52a8">n</tspan>
      <tspan x="56.310547" y="-0.640625" style="font-weight: 700; font-size: 11px; font-family: 'DejaVu Sans'; fill: #4a52a8">e</tspan>
      <tspan x="63.770996" y="-0.640625" style="font-weight: 700; font-size: 11px; font-family: 'DejaVu Sans'; fill: #4a52a8">s</tspan>
      <tspan x="70.318359" y="-0.640625" style="font-weight: 700; font-size: 11px; font-family: 'DejaVu Sans'; fill: #4a52a8"> </tspan>
      <tspan x="91.179323" y="-0.640625" style="font-weight: 700; font-size: 11px; font-family: 'DejaVu Sans'; fill: #4a52a8">)</tspan>
      <tspan x="74.147949" y="-0.640625" style="font-style: oblique; font-size: 11px; font-family: 'DejaVu Sans'; fill: #4a52a8">e</tspan>
      <tspan x="82.926637" y="-4.851562" style="font-size: 7.7px; font-family: 'DejaVu Sans'; fill: #4a52a8">−</tspan>
     </text>
    </g>
   </g>
   <g id="text_18">
    <text style="font-style: italic; font-size: 8.5px; font-family: 'DejaVu Sans', 'Segoe UI', 'Arial', sans-serif; text-anchor: middle; fill: #4a52a8" x="73.067988" y="203.207571" transform="rotate(-0 73.067988 203.207571)">1ª joroba</text>
   </g>
   <g id="patch_5">
    <path d="M 376.845228 72.335348 
Q 421.727315 91.853074 464.968948 110.65742 
" style="fill: none; stroke: #c2410c; stroke-width: 1.6; stroke-linecap: round"/>
    <path d="M 461.811304 106.885248 
L 464.968948 110.65742 
L 460.056624 110.920232 
z
" style="fill: #c2410c; stroke: #c2410c; stroke-width: 1.6; stroke-linecap: round"/>
   </g>
   <g id="text_19">
    <!-- Compton inverso  /  $\pi^0\!\to\!\gamma\gamma$ -->
    <g style="fill: #c2410c" transform="translate(276.329134 67.226618)">
     <text>
      <tspan x="0" y="-0.06875" style="font-weight: 700; font-size: 11px; font-family: 'DejaVu Sans'; fill: #c2410c">C</tspan>
      <tspan x="8.072754" y="-0.06875" style="font-weight: 700; font-size: 11px; font-family: 'DejaVu Sans'; fill: #c2410c">o</tspan>
      <tspan x="15.629883" y="-0.06875" style="font-weight: 700; font-size: 11px; font-family: 'DejaVu Sans'; fill: #c2410c">m</tspan>
      <tspan x="27.091797" y="-0.06875" style="font-weight: 700; font-size: 11px; font-family: 'DejaVu Sans'; fill: #c2410c">p</tspan>
      <tspan x="34.96582" y="-0.06875" style="font-weight: 700; font-size: 11px; font-family: 'DejaVu Sans'; fill: #c2410c">t</tspan>
      <tspan x="40.224121" y="-0.06875" style="font-weight: 700; font-size: 11px; font-family: 'DejaVu Sans'; fill: #c2410c">o</tspan>
      <tspan x="47.78125" y="-0.06875" style="font-weight: 700; font-size: 11px; font-family: 'DejaVu Sans'; fill: #c2410c">n</tspan>
      <tspan x="55.612305" y="-0.06875" style="font-weight: 700; font-size: 11px; font-family: 'DejaVu Sans'; fill: #c2410c"> </tspan>
      <tspan x="59.441895" y="-0.06875" style="font-weight: 700; font-size: 11px; font-family: 'DejaVu Sans'; fill: #c2410c">i</tspan>
      <tspan x="63.212402" y="-0.06875" style="font-weight: 700; font-size: 11px; font-family: 'DejaVu Sans'; fill: #c2410c">n</tspan>
      <tspan x="71.043457" y="-0.06875" style="font-weight: 700; font-size: 11px; font-family: 'DejaVu Sans'; fill: #c2410c">v</tspan>
      <tspan x="78.213867" y="-0.06875" style="font-weight: 700; font-size: 11px; font-family: 'DejaVu Sans'; fill: #c2410c">e</tspan>
      <tspan x="85.674316" y="-0.06875" style="font-weight: 700; font-size: 11px; font-family: 'DejaVu Sans'; fill: #c2410c">r</tspan>
      <tspan x="91.099121" y="-0.06875" style="font-weight: 700; font-size: 11px; font-family: 'DejaVu Sans'; fill: #c2410c">s</tspan>
      <tspan x="97.646484" y="-0.06875" style="font-weight: 700; font-size: 11px; font-family: 'DejaVu Sans'; fill: #c2410c">o</tspan>
      <tspan x="105.203613" y="-0.06875" style="font-weight: 700; font-size: 11px; font-family: 'DejaVu Sans'; fill: #c2410c"> </tspan>
      <tspan x="109.033203" y="-0.06875" style="font-weight: 700; font-size: 11px; font-family: 'DejaVu Sans'; fill: #c2410c"> </tspan>
      <tspan x="112.862793" y="-0.06875" style="font-weight: 700; font-size: 11px; font-family: 'DejaVu Sans'; fill: #c2410c">/</tspan>
      <tspan x="116.880371" y="-0.06875" style="font-weight: 700; font-size: 11px; font-family: 'DejaVu Sans'; fill: #c2410c"> </tspan>
      <tspan x="120.709961" y="-0.06875" style="font-weight: 700; font-size: 11px; font-family: 'DejaVu Sans'; fill: #c2410c"> </tspan>
      <tspan x="124.539551" y="-0.06875" style="font-style: oblique; font-size: 11px; font-family: 'DejaVu Sans'; fill: #c2410c">π</tspan>
      <tspan x="146.784222" y="-0.06875" style="font-style: oblique; font-size: 11px; font-family: 'DejaVu Sans'; fill: #c2410c">γ</tspan>
      <tspan x="153.293988" y="-0.06875" style="font-style: oblique; font-size: 11px; font-family: 'DejaVu Sans'; fill: #c2410c">γ</tspan>
      <tspan x="131.653385" y="-4.279688" style="font-size: 7.7px; font-family: 'DejaVu Sans'; fill: #c2410c">0</tspan>
      <tspan x="137.210283" y="-0.06875" style="font-size: 11px; font-family: 'DejaVu Sans'; fill: #c2410c">→</tspan>
     </text>
    </g>
   </g>
   <g id="text_20">
    <text style="font-style: italic; font-size: 8.5px; font-family: 'DejaVu Sans', 'Segoe UI', 'Arial', sans-serif; text-anchor: middle; fill: #c2410c" x="356.244134" y="85.664714" transform="rotate(-0 356.244134 85.664714)">2ª joroba  ·  leptónico / hadrónico</text>
   </g>
   <g id="patch_6">
    <path d="M 617.805855 139.974138 
Q 611.4354 173.488505 605.39899 205.245484 
" style="fill: none; stroke: #0f766e; stroke-width: 1.6; stroke-linecap: round"/>
    <path d="M 608.110761 201.689321 
L 605.39899 205.245484 
L 604.181122 200.94237 
z
" style="fill: #0f766e; stroke: #0f766e; stroke-width: 1.6; stroke-linecap: round"/>
   </g>
   <g id="text_21">
    <text style="font-weight: 700; font-size: 10px; font-family: 'DejaVu Sans', 'Segoe UI', 'Arial', sans-serif; fill: #0f766e" transform="translate(593.044967 120.872645)">Neutrinos</text>
    <!-- $\pi^+\!\to\!\mu^+\nu_\mu\!\to\! e^+\nu_e\bar\nu_\mu\nu_\mu$ -->
    <g style="fill: #0f766e" transform="translate(567.819967 132.912333)">
     <text>
      <tspan x="0" y="-0.785938" style="font-style: oblique; font-size: 10px; font-family: 'DejaVu Sans'; fill: #0f766e">π</tspan>
      <tspan x="24.361589" y="-0.785938" style="font-style: oblique; font-size: 10px; font-family: 'DejaVu Sans'; fill: #0f766e">μ</tspan>
      <tspan x="40.036719" y="-0.785938" style="font-style: oblique; font-size: 10px; font-family: 'DejaVu Sans'; fill: #0f766e">ν</tspan>
      <tspan x="59.377963" y="-0.785938" style="font-style: oblique; font-size: 10px; font-family: 'DejaVu Sans'; fill: #0f766e">e</tspan>
      <tspan x="74.860632" y="-0.785938" style="font-style: oblique; font-size: 10px; font-family: 'DejaVu Sans'; fill: #0f766e">ν</tspan>
      <tspan x="85.026647" y="-0.785938" style="font-style: oblique; font-size: 10px; font-family: 'DejaVu Sans'; fill: #0f766e">ν</tspan>
      <tspan x="95.435339" y="-0.785938" style="font-style: oblique; font-size: 10px; font-family: 'DejaVu Sans'; fill: #0f766e">ν</tspan>
      <tspan x="7.830892" y="-4.614063" style="font-size: 7px; font-family: 'DejaVu Sans'; fill: #0f766e">+</tspan>
      <tspan x="32.534278" y="-4.614063" style="font-size: 7px; font-family: 'DejaVu Sans'; fill: #0f766e">+</tspan>
      <tspan x="67.35819" y="-4.614063" style="font-size: 7px; font-family: 'DejaVu Sans'; fill: #0f766e">+</tspan>
      <tspan x="15.658008" y="-0.785938" style="font-size: 10px; font-family: 'DejaVu Sans'; fill: #0f766e">→</tspan>
      <tspan x="50.674382" y="-0.785938" style="font-size: 10px; font-family: 'DejaVu Sans'; fill: #0f766e">→</tspan>
      <tspan x="90.089147" y="-0.770313" style="font-size: 10px; font-family: 'DejaVu Sans'; fill: #0f766e">̄</tspan>
      <tspan x="45.622656" y="0.854687" style="font-style: oblique; font-size: 7px; font-family: 'DejaVu Sans'; fill: #0f766e">μ</tspan>
      <tspan x="80.446569" y="0.854687" style="font-style: oblique; font-size: 7px; font-family: 'DejaVu Sans'; fill: #0f766e">e</tspan>
      <tspan x="90.708288" y="0.854687" style="font-style: oblique; font-size: 7px; font-family: 'DejaVu Sans'; fill: #0f766e">μ</tspan>
      <tspan x="101.021276" y="0.854687" style="font-style: oblique; font-size: 7px; font-family: 'DejaVu Sans'; fill: #0f766e">μ</tspan>
     </text>
    </g>
   </g>
   <g id="patch_7">
    <path d="M 507.784676 196.117377 
Q 532.269394 229.394463 555.826474 261.410801 
" style="fill: none; stroke: #8a8fb0; stroke-width: 1.4; stroke-linecap: round"/>
    <path d="M 555.104799 257.224014 
L 555.826474 261.410801 
L 552.04404 259.476069 
z
" style="fill: #8a8fb0; stroke: #8a8fb0; stroke-width: 1.4; stroke-linecap: round"/>
   </g>
   <g id="text_22">
    <text style="font-size: 9.5px; font-family: 'DejaVu Sans', 'Segoe UI', 'Arial', sans-serif; fill: #6a4a2a" transform="translate(460.940292 179.893458)">atenuación EBL</text>
    <!-- $e^{-\tau(E,z)}$ -->
    <g style="fill: #6a4a2a" transform="translate(481.587206 190.53138)">
     <text>
      <tspan x="0" y="-0.85625" style="font-style: oblique; font-size: 9.5px; font-family: 'DejaVu Sans'; fill: #6a4a2a">e</tspan>
      <tspan x="6.308841" y="-4.684375" style="font-size: 6.65px; font-family: 'DejaVu Sans'; fill: #6a4a2a">−</tspan>
      <tspan x="15.884451" y="-4.684375" style="font-size: 6.65px; font-family: 'DejaVu Sans'; fill: #6a4a2a">(</tspan>
      <tspan x="22.68057" y="-4.684375" style="font-size: 6.65px; font-family: 'DejaVu Sans'; fill: #6a4a2a">,</tspan>
      <tspan x="29.580594" y="-4.684375" style="font-size: 6.65px; font-family: 'DejaVu Sans'; fill: #6a4a2a">)</tspan>
      <tspan x="11.880814" y="-4.684375" style="font-style: oblique; font-size: 6.65px; font-family: 'DejaVu Sans'; fill: #6a4a2a">τ</tspan>
      <tspan x="18.478861" y="-4.684375" style="font-style: oblique; font-size: 6.65px; font-family: 'DejaVu Sans'; fill: #6a4a2a">E</tspan>
      <tspan x="26.089993" y="-4.684375" style="font-style: oblique; font-size: 6.65px; font-family: 'DejaVu Sans'; fill: #6a4a2a">z</tspan>
     </text>
    </g>
   </g>
   <g id="text_23">
    <text style="font-style: italic; font-size: 8.2px; font-family: 'DejaVu Sans', 'Segoe UI', 'Arial', sans-serif; fill: #6b6f99" transform="translate(32.995892 347.231536)">cobertura</text>
    <text style="font-style: italic; font-size: 8.2px; font-family: 'DejaVu Sans', 'Segoe UI', 'Arial', sans-serif; fill: #6b6f99" transform="translate(32.995892 356.413742)">instrumental</text>
   </g>
   <g id="text_24">
    <text style="font-weight: 700; font-size: 12.5px; font-family: 'DejaVu Sans', 'Segoe UI', 'Arial', sans-serif; text-anchor: middle; fill: #1e2145" x="342.886768" y="17.198047" transform="rotate(-0 342.886768 17.198047)">Distribución espectral de energía (SED) de un blazar — esquema multimensajero</text>
   </g>
   <g id="patch_8">
    <path d="M 436.388326 341.493285 
L 529.889883 341.493285 
L 529.889883 331.121856 
L 436.388326 331.121856 
z
" style="fill: #e7e3f3; stroke: #5c62b0; stroke-width: 1.2; stroke-linejoin: miter"/>
   </g>
   <g id="patch_9">
    <path d="M 529.889883 341.493285 
L 596.67671 341.493285 
L 596.67671 331.121856 
L 529.889883 331.121856 
z
" style="fill: #f6ddc9; stroke: #c2410c; stroke-width: 1.2; stroke-linejoin: miter"/>
   </g>
   <g id="patch_10">
    <path d="M 543.247248 357.626618 
L 658.12059 357.626618 
L 658.12059 347.25519 
L 543.247248 347.25519 
z
" style="fill: #cfeae6; stroke: #0f766e; stroke-width: 1.2; stroke-linejoin: miter"/>
   </g>
   <g id="line2d_10">
    <path d="M 22.31 328.817028 
L 151.438622 328.706389 
L 176.879525 328.461811 
L 193.768865 328.087004 
L 206.810001 327.580748 
L 217.499456 326.949191 
L 226.692388 326.189851 
L 234.816374 325.302958 
L 242.298993 324.2636 
L 249.140244 323.088861 
L 255.553917 321.759019 
L 261.540012 320.288456 
L 267.098529 318.698894 
L 272.443257 316.943942 
L 277.574196 315.029381 
L 282.491345 312.964616 
L 287.408495 310.656903 
L 292.111855 308.20617 
L 296.815215 305.502524 
L 301.518576 302.531957 
L 306.008147 299.435473 
L 310.497718 296.073773 
L 314.98729 292.438061 
L 319.476861 288.521177 
L 323.966432 284.317875 
L 328.669793 279.603906 
L 333.373153 274.571621 
L 338.290302 268.973158 
L 343.207452 263.0369 
L 348.338391 256.495211 
L 353.683118 249.324146 
L 359.455424 241.203137 
L 365.655308 232.096393 
L 372.924138 221.00489 
L 382.11707 206.539428 
L 402.213246 174.779548 
L 408.840708 164.794159 
L 414.399225 156.801672 
L 419.316375 150.102005 
L 423.805946 144.344951 
L 428.081728 139.225614 
L 431.929932 134.95384 
L 435.564347 131.236132 
L 438.984973 128.037259 
L 442.405598 125.145866 
L 445.612435 122.727519 
L 448.605482 120.735502 
L 451.59853 119.007529 
L 454.377788 117.645433 
L 457.157047 116.521638 
L 459.936305 115.640032 
L 462.715564 115.003677 
L 465.281033 114.635879 
L 467.846502 114.480039 
L 470.411972 114.536621 
L 472.977441 114.805455 
L 475.54291 115.285745 
L 478.322169 116.043011 
L 481.101427 117.044127 
L 483.880685 118.285624 
L 486.659944 119.763212 
L 489.652991 121.612648 
L 492.646039 123.722655 
L 495.852875 126.263063 
L 499.059712 129.081636 
L 502.480338 132.380568 
L 506.114753 136.198327 
L 509.962957 140.568497 
L 514.02495 145.518032 
L 518.514521 151.351188 
L 523.43167 158.122766 
L 528.990187 166.181767 
L 535.403861 175.895869 
L 543.741636 188.963502 
L 567.258438 226.074114 
L 574.313478 236.66163 
L 580.513362 245.578048 
L 586.285668 253.495308 
L 591.630396 260.459622 
L 596.761335 266.790388 
L 601.678484 272.516362 
L 606.595634 277.899519 
L 611.298994 282.72366 
L 616.002354 287.229546 
L 620.705715 291.419776 
L 625.195286 295.129953 
L 629.684857 298.564033 
L 634.174429 301.730403 
L 638.877789 304.77114 
L 643.581149 307.541535 
L 648.28451 310.055366 
L 653.201659 312.42497 
L 658.118809 314.547356 
L 663.249747 316.517459 
L 663.463537 316.594417 
L 663.463537 316.594417 
" clip-path="url(#p4abadbd2be)" style="fill: none; stroke-dasharray: 6.5,3.9; stroke-dashoffset: 0; stroke: #c2410c; stroke-opacity: 0.55; stroke-width: 1.3"/>
   </g>
   <g id="text_25">
    <text style="font-weight: 700; font-size: 8.8px; font-family: 'DejaVu Sans', 'Segoe UI', 'Arial', sans-serif; text-anchor: middle; fill: #5c62b0" x="483.139104" y="338.851059" transform="rotate(-0 483.139104 338.851059)">Fermi-LAT</text>
   </g>
   <g id="text_26">
    <text style="font-weight: 700; font-size: 8.8px; font-family: 'DejaVu Sans', 'Segoe UI', 'Arial', sans-serif; text-anchor: middle; fill: #c2410c" x="563.283296" y="338.851059" transform="rotate(-0 563.283296 338.851059)">HAWC</text>
   </g>
   <g id="text_27">
    <!-- IceCube  ($\nu$) -->
    <g style="fill: #0f766e" transform="translate(571.379919 354.984392)">
     <text>
      <tspan x="0" y="-0.15625" style="font-weight: 700; font-size: 8.8px; font-family: 'DejaVu Sans'; fill: #0f766e">I</tspan>
      <tspan x="3.255615" y="-0.15625" style="font-weight: 700; font-size: 8.8px; font-family: 'DejaVu Sans'; fill: #0f766e">c</tspan>
      <tspan x="8.442383" y="-0.15625" style="font-weight: 700; font-size: 8.8px; font-family: 'DejaVu Sans'; fill: #0f766e">e</tspan>
      <tspan x="14.376831" y="-0.15625" style="font-weight: 700; font-size: 8.8px; font-family: 'DejaVu Sans'; fill: #0f766e">C</tspan>
      <tspan x="20.79834" y="-0.15625" style="font-weight: 700; font-size: 8.8px; font-family: 'DejaVu Sans'; fill: #0f766e">u</tspan>
      <tspan x="27.027588" y="-0.15625" style="font-weight: 700; font-size: 8.8px; font-family: 'DejaVu Sans'; fill: #0f766e">b</tspan>
      <tspan x="33.291016" y="-0.15625" style="font-weight: 700; font-size: 8.8px; font-family: 'DejaVu Sans'; fill: #0f766e">e</tspan>
      <tspan x="39.225464" y="-0.15625" style="font-weight: 700; font-size: 8.8px; font-family: 'DejaVu Sans'; fill: #0f766e"> </tspan>
      <tspan x="42.271729" y="-0.15625" style="font-weight: 700; font-size: 8.8px; font-family: 'DejaVu Sans'; fill: #0f766e"> </tspan>
      <tspan x="45.317993" y="-0.15625" style="font-weight: 700; font-size: 8.8px; font-family: 'DejaVu Sans'; fill: #0f766e">(</tspan>
      <tspan x="54.204712" y="-0.15625" style="font-weight: 700; font-size: 8.8px; font-family: 'DejaVu Sans'; fill: #0f766e">)</tspan>
      <tspan x="49.317017" y="-0.15625" style="font-style: oblique; font-size: 8.8px; font-family: 'DejaVu Sans'; fill: #0f766e">ν</tspan>
     </text>
    </g>
   </g>
   <g id="line2d_11">
    <path d="M 22.31 318.07266 
L 27.654728 316.268084 
L 32.785666 314.306334 
L 37.702816 312.197232 
L 42.619965 309.84646 
L 47.323326 307.356055 
L 52.026686 304.614441 
L 56.730046 301.607722 
L 61.219618 298.478402 
L 65.709189 295.08533 
L 70.19876 291.419377 
L 74.688332 287.472857 
L 79.177903 283.239781 
L 83.881263 278.493401 
L 88.584624 273.426043 
L 93.287984 268.038587 
L 98.205134 262.068495 
L 103.336072 255.48019 
L 108.6808 248.244106 
L 114.239317 240.339641 
L 120.225412 231.434119 
L 126.852874 221.162491 
L 134.549282 208.804782 
L 145.238737 191.176883 
L 160.417764 166.178916 
L 167.472805 154.997385 
L 173.4589 145.920133 
L 178.589838 138.53118 
L 183.293199 132.139405 
L 187.568981 126.691243 
L 191.630974 121.871229 
L 195.479178 117.653256 
L 199.113593 114.003577 
L 202.534219 110.882642 
L 205.741055 108.24684 
L 208.947892 105.903112 
L 211.940939 103.987939 
L 214.933987 102.342992 
L 217.713245 101.062896 
L 220.492504 100.025261 
L 223.271762 99.233459 
L 225.837231 98.723006 
L 228.402701 98.425646 
L 230.96817 98.34221 
L 233.533639 98.472929 
L 236.099109 98.817438 
L 238.664578 99.37478 
L 241.443836 100.216929 
L 244.223095 101.304287 
L 247.002353 102.633324 
L 249.781612 104.199738 
L 252.774659 106.146308 
L 255.767707 108.35508 
L 258.974543 111.003296 
L 262.395169 114.136913 
L 265.815795 117.574772 
L 269.450209 121.54279 
L 273.298413 126.075623 
L 277.360407 131.201618 
L 281.849978 137.236583 
L 286.767127 144.238841 
L 292.111855 152.245133 
L 298.311739 161.943835 
L 306.008147 174.416158 
L 322.256119 201.320693 
L 331.876629 216.96816 
L 339.145459 228.378215 
L 345.559132 238.03952 
L 351.331438 246.348108 
L 356.889955 253.963022 
L 362.234683 260.901183 
L 367.365621 267.190356 
L 372.282771 272.86579 
L 376.986131 277.967437 
L 381.689491 282.748054 
L 386.392852 287.209403 
L 391.096212 291.35592 
L 395.585784 295.026491 
L 400.075355 298.424039 
L 404.778715 301.700483 
L 409.482076 304.699177 
L 414.185436 307.433166 
L 418.888796 309.916368 
L 423.805946 312.260075 
L 428.723095 314.362597 
L 433.854034 316.317999 
L 439.198762 318.116519 
L 444.757279 319.751874 
L 450.529584 321.221291 
L 456.729469 322.568193 
L 463.356931 323.775352 
L 470.411972 324.832509 
L 478.108379 325.759263 
L 486.659944 326.560731 
L 496.280454 327.233868 
L 507.397487 327.782732 
L 520.652412 328.208476 
L 537.541752 328.518384 
L 561.272343 328.714436 
L 603.388797 328.804415 
L 663.463537 328.816678 
L 663.463537 328.816678 
" clip-path="url(#p4abadbd2be)" style="fill: none; stroke: #4a52a8; stroke-width: 2.6; stroke-linecap: square"/>
   </g>
   <g id="line2d_12">
    <path d="M 22.31 328.817028 
L 151.438622 328.706389 
L 176.879525 328.461811 
L 193.768865 328.087004 
L 206.810001 327.580748 
L 217.499456 326.949191 
L 226.692388 326.189851 
L 234.816374 325.302958 
L 242.298993 324.2636 
L 249.140244 323.088861 
L 255.553917 321.759019 
L 261.540012 320.288456 
L 267.098529 318.698894 
L 272.443257 316.943942 
L 277.574196 315.029381 
L 282.491345 312.964616 
L 287.408495 310.656903 
L 292.111855 308.20617 
L 296.815215 305.502524 
L 301.518576 302.531957 
L 306.008147 299.435473 
L 310.497718 296.073773 
L 314.98729 292.438061 
L 319.476861 288.521177 
L 323.966432 284.317875 
L 328.669793 279.603906 
L 333.373153 274.571621 
L 338.290302 268.973158 
L 343.207452 263.0369 
L 348.338391 256.495211 
L 353.683118 249.324146 
L 359.455424 241.203137 
L 365.655308 232.096393 
L 372.924138 221.00489 
L 382.11707 206.539428 
L 402.213246 174.779548 
L 408.840708 164.794159 
L 414.399225 156.801672 
L 419.316375 150.102005 
L 423.805946 144.344951 
L 428.081728 139.225614 
L 431.929932 134.95384 
L 435.564347 131.236132 
L 438.984973 128.037259 
L 442.405598 125.145866 
L 445.612435 122.727519 
L 448.605482 120.735502 
L 451.59853 119.007529 
L 454.377788 117.645433 
L 457.157047 116.521638 
L 459.936305 115.640032 
L 462.715564 115.003677 
L 465.281033 114.635879 
L 467.846502 114.480039 
L 470.411972 114.536621 
L 472.977441 114.805455 
L 475.54291 115.285745 
L 478.322169 116.043011 
L 481.101427 117.044127 
L 483.880685 118.285624 
L 486.659944 119.763212 
L 489.652991 121.612648 
L 492.646039 123.722655 
L 495.852875 126.263063 
L 499.059712 129.081636 
L 502.480338 132.380568 
L 506.114753 136.198327 
L 509.962957 140.568497 
L 514.02495 145.518032 
L 518.514521 151.351188 
L 523.43167 158.122766 
L 525.355772 160.984579 
L 526.424718 163.034926 
L 527.707453 166.020557 
L 529.203976 170.186403 
L 530.7005 175.029347 
L 532.410813 181.304361 
L 534.548704 190.090548 
L 537.114173 201.698574 
L 540.748588 219.335775 
L 547.376051 251.632368 
L 550.369098 265.022874 
L 552.934567 275.505133 
L 555.286248 284.183143 
L 557.424139 291.251517 
L 559.56203 297.526801 
L 561.486132 302.50743 
L 563.410234 306.880369 
L 565.334336 310.679524 
L 567.258438 313.946195 
L 568.968751 316.440127 
L 570.679063 318.583977 
L 572.389376 320.412469 
L 574.313478 322.135253 
L 576.23758 323.54935 
L 578.161682 324.698926 
L 580.299573 325.715225 
L 582.651254 326.573051 
L 585.216723 327.26313 
L 588.20977 327.823858 
L 591.844185 328.255867 
L 596.333756 328.551073 
L 602.74743 328.732513 
L 614.933409 328.80968 
L 663.463537 328.817094 
L 663.463537 328.817094 
" clip-path="url(#p4abadbd2be)" style="fill: none; stroke: #c2410c; stroke-width: 2.6; stroke-linecap: square"/>
   </g>
   <g id="line2d_13">
    <path d="M 518.514521 326.47261 
L 521.935147 325.632944 
L 525.141983 324.622007 
L 528.135031 323.443857 
L 530.914289 322.112665 
L 533.479759 320.652422 
L 536.045228 318.943229 
L 538.610697 316.959211 
L 541.176166 314.675488 
L 543.741636 312.069138 
L 546.307105 309.120259 
L 548.872574 305.813132 
L 551.438044 302.137428 
L 554.003513 298.089421 
L 556.782771 293.28884 
L 559.775819 287.655444 
L 562.982656 281.129753 
L 566.61707 273.212023 
L 571.320431 262.377894 
L 581.796097 238.028443 
L 585.002934 231.21725 
L 587.782192 225.814053 
L 590.133872 221.696061 
L 592.271763 218.372743 
L 594.195865 215.762753 
L 595.906178 213.770492 
L 597.616491 212.105401 
L 599.113015 210.928783 
L 600.609539 210.022518 
L 602.106062 209.392999 
L 603.388797 209.07711 
L 604.671532 208.9695 
L 605.954266 209.070731 
L 607.237001 209.380275 
L 608.519736 209.896516 
L 610.016259 210.756394 
L 611.512783 211.887839 
L 613.009307 213.282912 
L 614.71962 215.187545 
L 616.643722 217.705135 
L 618.567824 220.592287 
L 620.705715 224.194747 
L 623.057395 228.581311 
L 625.836653 234.246052 
L 629.257279 241.764024 
L 634.174429 253.196692 
L 642.725993 273.124082 
L 646.574197 281.497028 
L 649.994823 288.41245 
L 652.98787 293.985169 
L 655.767129 298.726095 
L 658.546387 303.033616 
L 661.111856 306.622208 
L 663.463537 309.589366 
L 663.463537 309.589366 
" clip-path="url(#p4abadbd2be)" style="fill: none; stroke-dasharray: 14.4,7.2; stroke-dashoffset: 0; stroke: #0f766e; stroke-width: 2.4"/>
   </g>
  </g>
 </g>
 <defs>
  <clipPath id="p4abadbd2be">
   <rect x="22.31" y="29.198047" width="641.153537" height="338.8"/>
  </clipPath>
 </defs>
</svg>
